PathFileType	4	(X/Y/Z)	RBDS04\RBDS04runT45.trc
DataRate	CameraRate	NumFrames	NumMarkers	Units	OrigDataRate	OrigDataStartFrame	OrigNumFrames
150.000000	150.000000	4	33	mm	150.000000	3937	4500
Frame#	Time	L.ASIS			L.Heel.Bottom			L.Heel.Lateral			L.Heel.Top			L.Iliac.Crest			L.MT1			L.MT5			L.PSIS			L.Shank.Bottom.Lateral			L.Shank.Bottom.Medial			L.Shank.Top.Lateral			L.Shank.Top.Medial			L.Thigh.Bottom.Lateral			L.Thigh.Bottom.Medial			L.Thigh.Top.Lateral			L.Thigh.Top.Medial			R.ASIS			R.ASY			R.Heel.Bottom			R.Heel.Lateral			R.Heel.Top			R.Iliac.Crest			R.MT1			R.MT5			R.PSIS			R.Shank.Bottom.Lateral			R.Shank.Bottom.Medial			R.Shank.Top.Lateral			R.Shank.Top.Medial			R.Thigh.Bottom.Lateral			R.Thigh.Bottom.Medial			R.Thigh.Top.Lateral			R.Thigh.Top.Medial			
		X1	Y1	Z1	X2	Y2	Z2	X3	Y3	Z3	X4	Y4	Z4	X5	Y5	Z5	X6	Y6	Z6	X7	Y7	Z7	X8	Y8	Z8	X9	Y9	Z9	X10	Y10	Z10	X11	Y11	Z11	X12	Y12	Z12	X13	Y13	Z13	X14	Y14	Z14	X15	Y15	Z15	X16	Y16	Z16	X17	Y17	Z17	X18	Y18	Z18	X19	Y19	Z19	X20	Y20	Z20	X21	Y21	Z21	X22	Y22	Z22	X23	Y23	Z23	X24	Y24	Z24	X25	Y25	Z25	X26	Y26	Z26	X27	Y27	Z27	X28	Y28	Z28	X29	Y29	Z29	X30	Y30	Z30	X31	Y31	Z31	X32	Y32	Z32	X33	Y33	Z33	

3938	26.24666666666667	2272.39961675397	961.4717001175736	894.0930128992622	2334.310393029774	38.87792431983264	961.8313845312999	2363.960841131849	50.51940047766777	916.599780286777	2340.369050011764	84.29152887894509	952.1679725856918	2206.881832988213	1028.6873355957	840.321466493495	2545.327983138692	81.18070987555086	988.182496145923	2516.111177056015	48.25328329783913	895.9653645470048	2109.676781282293	993.9763090590685	939.8539957617196	2381.135873709736	182.2317203992284	887.4969464810422	2340.041951508128	174.6822355050647	916.2938634769292	2358.681914009941	257.0041173350374	867.78280098006	2315.87235242823	253.8228097762602	899.2035767426788	2300.093043071141	611.5565637167322	823.0830316922371	2241.987218533015	589.1953661408683	860.7659083735598	2249.390746445891	708.0839380597087	806.1750589349382	2194.045894014314	687.1568412666546	841.0248330928666	2266.981718544753	939.1149466932966	1082.012681118417	-3916653510.050879	-10868212702.97701	-34678793698.46309	1679.498421642942	601.797531101405	966.6148152721892	1669.343420547854	570.4045899658531	1009.398346718533	1715.304976641795	577.1096459258167	980.1754837995153	2226.317489515995	1010.313038558986	1118.154398436986	1622.75974987426	395.1906205326936	938.7364481625738	1594.508741307556	435.6773938840519	1024.465841120161	2112.52461498834	990.4783748628171	1026.936630488304	1775.021451588826	522.4356434043648	1039.79513782326	1784.502393811704	556.1651553182737	1000.707879449124	1852.887375826765	527.9679167441053	1062.304963161984	1861.845521690899	559.1100096048594	1019.5534553772	2108.42329686894	572.8455921142316	1115.687112229162	2063.685308800211	583.8276389867357	1058.398985825996	2110.794222766448	682.0193290265704	1132.652998495001	2064.515014374497	692.2962339176651	1080.189930760443	
3939	26.25333333333333	2270.653166632166	956.5513024455663	893.1134446016364	2308.808072292581	36.58509795289454	965.9268049949208	2338.785015095836	48.52432247643571	921.0033057719139	2316.586617316049	82.02980785007257	957.769141018458	2205.332620558252	1022.777262109999	840.2705613564247	2521.951102164833	71.50576842460823	992.8427557184208	2491.066045693933	43.03999078555484	899.5265500399807	2107.490592483206	988.8330666278191	941.5174136811717	2363.628343694624	176.1563864747757	892.6463740349229	2321.863540264153	170.9925011516728	920.7032929520279	2345.282417429687	251.5909069791034	871.9585602834333	2301.916397793697	250.9317091300413	902.6937085060251	2297.978142500294	607.7885225355036	824.5882703790546	2239.601332392222	585.1392250978182	861.7171008866474	2246.74282565557	703.8807417575384	806.9158258911772	2191.212377844583	682.682587170807	841.3725790480692	2266.945168294177	933.5935961749011	1081.060423824965	-3920104157.096889	-10877781544.82601	-34709336472.21336	1698.017805928994	607.6428508112338	967.132432351173	1687.583866726691	577.1678289377329	1010.73384583891	1733.396359784057	582.4183197659219	980.9920617494195	2226.816736740638	1003.939788676775	1118.860422955458	1636.381648396881	401.6256934368714	943.9383808813442	1610.063082281752	444.3142935361986	1029.373659446102	2111.247442145499	984.6100432764289	1028.395836185965	1791.995514278427	525.3469771670732	1042.14337199531	1802.79735910413	558.5331901925379	1002.856029696015	1870.075729227404	527.7052589333119	1064.331994383406	1880.193871918973	558.4155185692878	1021.578836251318	2118.934102109523	564.0511103309939	1117.370190987104	2073.337495775597	573.2626433666118	1060.59564871533	2117.969118965662	673.3565955054129	1133.87003588245	2070.924721610666	681.8473081602572	1081.817907842476	
3940	26.26	2268.479984071414	951.5496118812915	892.152698182143	2281.622354502418	34.7076825003823	969.4827462029618	2311.951033557297	47.37485968863484	925.0309567129127	2290.953221627972	80.20562322971851	963.1651426446161	2203.46658250039	1016.532971715685	840.2677468191089	2496.593479207999	62.94907447862919	997.465105263597	2464.25950938137	39.38041587873612	902.8902059006433	2104.967110338745	983.720876143246	943.3164322937455	2344.737717538414	170.6553204550346	897.9419227978295	2302.280105711287	168.069850959209	925.0905150860398	2330.897986254102	246.6622790281952	876.2396228405647	2286.963521166943	248.7043538545107	906.105676698371	2295.493052307125	603.972094046168	825.9162313539239	2236.968503996374	581.0993621846636	862.7280136870594	2243.697608995388	699.6445729571053	807.5087821733961	2188.066820849359	678.2118291983815	841.7217239092865	2266.665662186223	927.8796962987063	1079.975915182935	-3923556830.258965	-10887356001.57253	-34739897174.06014	1716.814683918752	612.0884401352953	968.1437880008621	1706.479588882963	582.3502728452007	1012.477607815398	1751.935652712753	586.5112882165189	982.1059916904303	2226.9183736355	997.3077832921333	1119.609236683171	1651.439313602532	406.5732908665915	949.176164922514	1627.224665475354	450.9385673753581	1034.497942230041	2109.655880532115	978.7195640279903	1029.920152910689	1809.825844459422	527.1957551730088	1044.695699982193	1821.849204157988	559.912877288719	1005.17007571444	1888.056818949407	526.6250211958953	1066.497385530879	1899.205630935279	557.0112837497078	1023.851042039588	2130.160989134941	555.4527617264987	1119.103558543443	2083.571772068782	562.7544804912698	1063.005545875865	2125.574047840631	664.7526544520792	1135.213053917298	2077.640257767334	671.2858907374494	1083.762058641722	
3941	26.26666666666667	2265.869658666539	946.6283738382235	891.2461864938101	2253.198391938993	33.27915572635941	972.4727355481333	2283.881709682732	47.00313536654674	928.608103879833	2263.849984761211	78.83731321838341	968.177763510345	2201.187187416454	1010.132115446085	840.334565948434	2469.627914717981	55.82010957118747	1001.846783867596	2436.107421164828	37.22736237155825	905.9813391349982	2102.136195281063	978.7681451521404	945.2353950373094	2324.613843188616	165.8940863797147	903.165339569391	2281.498505775663	166.003356406882	929.2779769051876	2315.53461053901	242.3265563868256	880.4646522625972	2271.078926597474	247.1666071194734	909.3205990744652	2292.353131330639	600.0951728413532	827.0435680038612	2233.813688835078	577.1465398227734	863.8310032800642	2240.087106057444	695.4334123620652	807.9657910217045	2184.455212242338	673.8841416635319	842.1403351140669	2266.110162789081	922.1130620924685	1078.808573281077	-3927011530.131777	-10896936074.86346	-34770475809.26363	1735.648376032144	615.1833547785874	969.8011468527867	1725.809958271788	585.9536892639619	1014.743167573779	1770.7063480347	589.4322379443504	983.6039455295054	2226.48856691887	990.5387885921275	1120.42379999299	1667.766820434128	410.0057475623885	954.3474083687395	1645.824404074088	455.4284151497571	1039.765462990338	2107.75063403964	972.9444325312616	1031.486009027672	1828.348282591749	528.0107569934873	1047.41771733531	1841.455257193872	560.3924275403066	1007.676887833498	1906.693686559721	524.8267746506202	1068.785341260147	1918.719733352492	555.0406765695399	1026.367606114622	2142.110161786497	547.3247402698508	1120.849920122748	2094.469412021421	552.5643142386357	1065.540958155821	2133.589823476037	656.4472872277998	1136.64120390537	2084.695445035053	660.8297221211116	1085.953321900944	
